<svg width="1092" height="18" viewBox="0 0 1092 18" fill="none" xmlns="http://www.w3.org/2000/svg">
<path d="M0.502954 17L4.68295 0.94H7.34495L11.503 17H9.50095L8.44495 12.732H3.58295L2.52695 17H0.502954ZM3.97895 11.06H8.02695L6.79495 6.11C6.56029 5.17133 6.37695 4.38667 6.24495 3.756C6.11295 3.12533 6.03229 2.71467 6.00295 2.524C5.97362 2.71467 5.89295 3.12533 5.76095 3.756C5.62895 4.38667 5.44562 5.164 5.21095 6.088L3.97895 11.06ZM121.186 17V0.94H123.782L125.454 6.132C125.616 6.60133 125.762 7.07067 125.894 7.54C126.026 7.99467 126.122 8.34667 126.18 8.596C126.254 8.34667 126.349 7.99467 126.466 7.54C126.584 7.07067 126.716 6.594 126.862 6.11L128.446 0.94H131.042V17H129.106V11.17C129.106 10.5247 129.128 9.79133 129.172 8.97C129.216 8.14867 129.275 7.31267 129.348 6.462C129.422 5.59667 129.495 4.77533 129.568 3.998C129.656 3.206 129.73 2.51667 129.788 1.93L127.192 9.96H125.102L122.484 1.93C122.558 2.502 122.631 3.16933 122.704 3.932C122.778 4.68 122.844 5.47933 122.902 6.33C122.961 7.166 123.012 8.002 123.056 8.838C123.1 9.674 123.122 10.4513 123.122 11.17V17H121.186ZM240.726 17L244.906 0.94H247.568L251.726 17H249.724L248.668 12.732H243.806L242.75 17H240.726ZM244.202 11.06H248.25L247.018 6.11C246.783 5.17133 246.6 4.38667 246.468 3.756C246.336 3.12533 246.255 2.71467 246.226 2.524C246.196 2.71467 246.116 3.12533 245.984 3.756C245.852 4.38667 245.668 5.164 245.434 6.088L244.202 11.06ZM361.717 17V0.94H364.357L369.263 14.69C369.234 14.3233 369.197 13.876 369.153 13.348C369.124 12.8053 369.095 12.2407 369.065 11.654C369.051 11.0527 369.043 10.488 369.043 9.96V0.94H370.957V17H368.317L363.433 3.25C363.463 3.602 363.492 4.04933 363.521 4.592C363.551 5.12 363.573 5.68467 363.587 6.286C363.617 6.87267 363.631 7.43733 363.631 7.98V17H361.717ZM481.873 17V0.94H486.031C487.072 0.94 487.967 1.138 488.715 1.534C489.477 1.93 490.064 2.48733 490.475 3.206C490.9 3.92467 491.113 4.77533 491.113 5.758V12.16C491.113 13.1427 490.9 14.0007 490.475 14.734C490.064 15.4527 489.477 16.01 488.715 16.406C487.967 16.802 487.072 17 486.031 17H481.873ZM483.853 15.24H486.031C486.999 15.24 487.754 14.9687 488.297 14.426C488.854 13.8833 489.133 13.128 489.133 12.16V5.758C489.133 4.80467 488.854 4.05667 488.297 3.514C487.754 2.97133 486.999 2.7 486.031 2.7H483.853V15.24ZM606.56 17.22C605.592 17.22 604.756 17.0367 604.052 16.67C603.363 16.3033 602.827 15.7753 602.446 15.086C602.079 14.382 601.896 13.5533 601.896 12.6V5.34C601.896 4.372 602.079 3.54333 602.446 2.854C602.827 2.16467 603.363 1.63667 604.052 1.27C604.756 0.903333 605.592 0.72 606.56 0.72C607.528 0.72 608.357 0.903333 609.046 1.27C609.75 1.63667 610.285 2.16467 610.652 2.854C611.033 3.54333 611.224 4.36467 611.224 5.318V12.6C611.224 13.5533 611.033 14.382 610.652 15.086C610.285 15.7753 609.75 16.3033 609.046 16.67C608.357 17.0367 607.528 17.22 606.56 17.22ZM606.56 15.438C607.425 15.438 608.085 15.196 608.54 14.712C609.009 14.2133 609.244 13.5093 609.244 12.6V5.34C609.244 4.43067 609.009 3.734 608.54 3.25C608.085 2.75133 607.425 2.502 606.56 2.502C605.709 2.502 605.049 2.75133 604.58 3.25C604.111 3.734 603.876 4.43067 603.876 5.34V12.6C603.876 13.5093 604.111 14.2133 604.58 14.712C605.049 15.196 605.709 15.438 606.56 15.438ZM726.759 17.22C725.791 17.22 724.948 17.0367 724.229 16.67C723.525 16.3033 722.975 15.7753 722.579 15.086C722.198 14.382 722.007 13.5533 722.007 12.6V5.34C722.007 4.372 722.198 3.54333 722.579 2.854C722.975 2.16467 723.525 1.63667 724.229 1.27C724.948 0.903333 725.791 0.72 726.759 0.72C727.727 0.72 728.563 0.910666 729.267 1.292C729.971 1.65867 730.514 2.18667 730.895 2.876C731.277 3.56533 731.467 4.38667 731.467 5.34H729.487C729.487 4.43067 729.245 3.734 728.761 3.25C728.292 2.75133 727.625 2.502 726.759 2.502C725.894 2.502 725.212 2.744 724.713 3.228C724.229 3.712 723.987 4.40867 723.987 5.318V12.6C723.987 13.5093 724.229 14.2133 724.713 14.712C725.212 15.196 725.894 15.438 726.759 15.438C727.625 15.438 728.292 15.196 728.761 14.712C729.245 14.2133 729.487 13.5093 729.487 12.6H731.467C731.467 13.5387 731.277 14.36 730.895 15.064C730.514 15.7533 729.971 16.2887 729.267 16.67C728.563 17.0367 727.727 17.22 726.759 17.22ZM842.493 17V15.196H845.771V2.744H842.493V0.94H851.073V2.744H847.795V15.196H851.073V17H842.493ZM962.274 17V0.94H964.914L969.82 14.69C969.791 14.3233 969.754 13.876 969.71 13.348C969.681 12.8053 969.652 12.2407 969.622 11.654C969.608 11.0527 969.6 10.488 969.6 9.96V0.94H971.514V17H968.874L963.99 3.25C964.02 3.602 964.049 4.04933 964.078 4.592C964.108 5.12 964.13 5.68467 964.144 6.286C964.174 6.87267 964.188 7.43733 964.188 7.98V17H962.274ZM1087.01 17.22C1086.04 17.22 1085.2 17.0367 1084.5 16.67C1083.81 16.3033 1083.27 15.7753 1082.89 15.086C1082.52 14.382 1082.34 13.5533 1082.34 12.6V5.34C1082.34 4.372 1082.52 3.54333 1082.89 2.854C1083.27 2.16467 1083.81 1.63667 1084.5 1.27C1085.2 0.903333 1086.04 0.72 1087.01 0.72C1087.97 0.72 1088.8 0.903333 1089.49 1.27C1090.2 1.63667 1090.73 2.16467 1091.1 2.854C1091.48 3.54333 1091.67 4.36467 1091.67 5.318V12.6C1091.67 13.5533 1091.48 14.382 1091.1 15.086C1090.73 15.7753 1090.2 16.3033 1089.49 16.67C1088.8 17.0367 1087.97 17.22 1087.01 17.22ZM1087.01 15.438C1087.87 15.438 1088.53 15.196 1088.99 14.712C1089.45 14.2133 1089.69 13.5093 1089.69 12.6V5.34C1089.69 4.43067 1089.45 3.734 1088.99 3.25C1088.53 2.75133 1087.87 2.502 1087.01 2.502C1086.15 2.502 1085.49 2.75133 1085.03 3.25C1084.56 3.734 1084.32 4.43067 1084.32 5.34V12.6C1084.32 13.5093 1084.56 14.2133 1085.03 14.712C1085.49 15.196 1086.15 15.438 1087.01 15.438Z" fill="white"/>
</svg>
